<svg width="29" height="29" viewBox="0 0 29 29" fill="none" xmlns="http://www.w3.org/2000/svg">
<path d="M25.6816 7.6183C25.2498 7.0423 24.5997 6.71238 23.9003 6.71238H7.92497L7.85388 6.08769C7.71815 4.89782 6.74999 4 5.60473 4H3.60894C3.18109 4 2.83337 4.36372 2.83337 4.81128C2.83337 5.25883 3.18109 5.62256 3.60894 5.62256H5.60344C5.77816 5.62287 5.94674 5.68998 6.07744 5.81126C6.20815 5.93254 6.29195 6.09962 6.31308 6.28105L7.79054 19.1682C7.92626 20.3581 8.89443 21.2559 10.0397 21.2559H21.615C22.6633 21.2559 23.5681 20.5122 23.8163 19.4481L26.1017 9.6438C26.2671 8.93258 26.1133 8.19431 25.6816 7.6183ZM24.5945 9.25979L22.3091 19.0641C22.2714 19.2269 22.1825 19.3717 22.0566 19.4752C21.9307 19.5787 21.7751 19.6349 21.615 19.6347H10.0397C9.86496 19.6344 9.69638 19.5673 9.56568 19.446C9.43497 19.3247 9.35117 19.1576 9.33004 18.9762L8.10981 8.33629H23.9003C24.1214 8.33629 24.3256 8.4404 24.4613 8.62159C24.5971 8.80277 24.6462 9.03534 24.5945 9.25979Z" fill="white"/>
<path d="M20.0783 12.797H11.9206C11.4928 12.797 11.1451 12.4333 11.1451 11.9857C11.1451 11.5382 11.4928 11.1744 11.9206 11.1744H20.0796C20.5074 11.1744 20.8551 11.5382 20.8551 11.9857C20.8551 12.4333 20.5074 12.797 20.0783 12.797Z" fill="white"/>
<path d="M8.45119 23.6437C8.45119 24.0034 8.58778 24.3484 8.83092 24.6027C9.07406 24.857 9.40382 24.9999 9.74767 24.9999C10.0915 24.9999 10.4213 24.857 10.6644 24.6027C10.9076 24.3484 11.0442 24.0034 11.0442 23.6437C11.0442 23.284 10.9076 22.9391 10.6644 22.6847C10.4213 22.4304 10.0915 22.2875 9.74767 22.2875C9.40382 22.2875 9.07406 22.4304 8.83092 22.6847C8.58778 22.9391 8.45119 23.284 8.45119 23.6437Z" fill="white"/>
<path d="M20.8018 23.6437C20.8018 23.8218 20.8353 23.9982 20.9005 24.1627C20.9656 24.3272 21.0611 24.4768 21.1815 24.6027C21.3019 24.7286 21.4448 24.8285 21.6021 24.8967C21.7594 24.9648 21.928 24.9999 22.0983 24.9999C22.2685 24.9999 22.4371 24.9648 22.5944 24.8967C22.7517 24.8285 22.8946 24.7286 23.015 24.6027C23.1354 24.4768 23.2309 24.3272 23.2961 24.1627C23.3612 23.9982 23.3947 23.8218 23.3947 23.6437C23.3947 23.284 23.2581 22.9391 23.015 22.6847C22.7719 22.4304 22.4421 22.2875 22.0983 22.2875C21.7544 22.2875 21.4246 22.4304 21.1815 22.6847C20.9384 22.9391 20.8018 23.284 20.8018 23.6437Z" fill="white"/>
</svg>
