<svg width="12" height="12" viewBox="0 0 12 12" fill="none" xmlns="http://www.w3.org/2000/svg">
    <path className="customFillOpacity" fill-rule="evenodd" clip-rule="evenodd" d="M4.6665 10.6332C4.6665 11.3512 5.24854 11.9332 5.96651 11.9332C6.68447 11.9332 7.26651 11.3512 7.26651 10.6332V7.26655H10.6332C11.3512 7.26655 11.9332 6.68452 11.9332 5.96655C11.9332 5.24858 11.3512 4.66655 10.6332 4.66655H7.26651V1.3C7.26651 0.58203 6.68448 0 5.96651 0C5.24854 0 4.66651 0.58203 4.66651 1.3V4.66655H1.3C0.58203 4.66655 0 5.24858 0 5.96655C0 6.68452 0.58203 7.26655 1.3 7.26655H4.6665V10.6332Z" fill="white" fill-opacity="0.9"/>
</svg>
